#!OML:ASF E:\emotionWalksFemale\Project 1\Capture day 1\Session 1\Female1.ASF
:FULLY-SPECIFIED
:DEGREES
3039
root 8.71274 15.182 -25.6267 360.167 2.23676 -7.51748
lowerback 3.72798 4.00739 -0.272734
upperback -2.78264 5.14308 -4.49207
thorax -4.58081 2.48939 -4.89751
lowerneck -7.38029 0.871001 -2.44568
upperneck 44.9379 4.42658 -3.74249
head 18.1516 0.946304 -0.583458
rclavicle -3.926e-015 3.18055e-014
rhumerus -28.3389 4.0412 -74.6803
rradius 39.5959
rwrist 18.9237
rhand 4.07783 -47.7459
rfingers 7.12502
rthumb 29.49 -435.424
lclavicle -3.926e-015 3.18055e-014
lhumerus -52.6031 24.9215 33.4997
lradius 40.9142
lwrist -4.77921
lhand -8.11375 -30.373
lfingers 7.12502
lthumb 17.7994 -1.16757
rfemur 22.8628 3.52474 41.7178
rtibia -4.77083e-014
rfoot -2.2132 -3.80086
rtoes 6.88705
lfemur -35.3811 -30.4183 -6.96795
ltibia 30.6475
lfoot -22.4508 18.1067
ltoes -36.494
3040
root 8.72076 15.1699 -25.5315 360.35 1.96439 -7.52458
lowerback 3.61603 4.05501 -0.172185
upperback -2.96776 5.21156 -4.45211
thorax -4.70021 2.51728 -4.91811
lowerneck -7.54876 0.864175 -2.58029
upperneck 45.0432 4.39037 -3.56948
head 18.2518 0.925246 -0.483196
rclavicle 7.44946e-014 -5.40694e-014
rhumerus -27.8968 3.89665 -74.1271
rradius 39.5131
rwrist 18.6374
rhand 4.46593 -47.9469
rfingers 7.12502
rthumb 29.8604 -435.559
lclavicle 7.44946e-014 -5.40694e-014
lhumerus -52.8493 25.0713 32.3352
lradius 40.8164
lwrist -4.43039
lhand -8.2269 -30.0594
lfingers 7.12502
lthumb 17.6905 -0.844166
rfemur 23.1184 3.62744 41.6585
rtibia -4.45278e-014
rfoot -2.05574 -3.60444
rtoes 6.20112
lfemur -35.0515 -30.3643 -7.14122
ltibia 30.6836
lfoot -21.9621 18.0991
ltoes -38.0819
3041
root 8.73031 15.1599 -25.4322 360.521 1.70423 -7.43358
lowerback 3.39413 4.1005 -0.190949
upperback -3.16343 5.27186 -4.42621
thorax -4.77828 2.54552 -4.87728
lowerneck -7.38117 0.861885 -2.54632
upperneck 45.0184 4.34298 -3.53066
head 18.1877 0.920018 -0.479965
rclavicle 1.1127e-013 -5.40694e-014
rhumerus -27.525 3.93898 -73.6358
rradius 39.4044
rwrist 18.2781
rhand 4.54133 -48.1258
rfingers 7.12502
rthumb 29.9324 -435.725
lclavicle 1.1127e-013 -5.40694e-014
lhumerus -53.1563 25.1992 31.1511
lradius 40.7214
lwrist -4.18246
lhand -8.52399 -29.7464
lfingers 7.12502
lthumb 17.4046 -0.505658
rfemur 23.4056 3.71727 41.4782
rtibia -1.04958e-013
rfoot -2.06283 -3.39864
rtoes 5.52948
lfemur -34.921 -31.1247 -7.03773
ltibia 30.7132
lfoot -21.279 18.4341
ltoes -38.0373
3042
root 8.74166 15.1523 -25.3348 360.737 1.55408 -7.27904
lowerback 3.12351 4.13485 -0.146346
upperback -3.22951 5.32445 -4.45203
thorax -4.6831 2.57155 -4.91199
lowerneck -7.48149 0.863695 -2.56277
upperneck 44.9067 4.31196 -3.47018
head 18.1394 0.914304 -0.450015
rclavicle 3.8266e-014 -6.99722e-014
rhumerus -26.8659 3.81979 -73.0798
rradius 39.1896
rwrist 18.0894
rhand 4.39149 -47.9718
rfingers 7.12502
rthumb 29.7894 -435.597
lclavicle 3.8266e-014 -6.99722e-014
lhumerus -53.2314 25.5059 30.1782
lradius 40.6734
lwrist -3.85215
lhand -8.96088 -29.4152
lfingers 7.12502
lthumb 16.9841 -0.137697
rfemur 23.6171 3.72599 41.1971
rtibia -1.59028e-014
rfoot -2.14437 -3.11257
rtoes 4.78952
lfemur -35.0742 -32.2703 -6.76528
ltibia 30.7384
lfoot -20.7514 18.6144
ltoes -35.5452
3043
root 8.75017 15.1491 -25.2363 360.86 1.26528 -7.13031
lowerback 3.01732 4.17482 -0.0883537
upperback -3.36724 5.37722 -4.51083
thorax -4.75214 2.59258 -5.00833
lowerneck -7.48936 0.915996 -2.60948
upperneck 44.8674 4.32979 -3.3153
head 18.1075 0.93382 -0.364651
rclavicle 2.84759e-014 -9.54166e-015
rhumerus -26.3583 3.63244 -72.6509
rradius 39.0013
rwrist 18.2064
rhand 4.70195 -48.1316
rfingers 7.12502
rthumb 30.0856 -435.703
lclavicle 2.84759e-014 -9.54166e-015
lhumerus -53.4064 25.6097 29.1387
lradius 40.6694
lwrist -3.17338
lhand -9.35378 -29.1372
lfingers 7.12502
lthumb 16.6059 0.17233
rfemur 23.9146 3.833 40.9229
rtibia -5.725e-014
rfoot -2.08095 -2.78822
rtoes 4.23429
lfemur -35.0228 -32.946 -6.70836
ltibia 30.7348
lfoot -20.1622 18.3219
ltoes -33.0049
3044
root 8.75596 15.1495 -25.1353 360.852 0.933042 -6.8874
lowerback 3.00507 4.24614 -0.212021
upperback -3.45784 5.4609 -4.55781
thorax -4.84048 2.63515 -4.99882
lowerneck -7.57025 0.927673 -2.70084
upperneck 44.9229 4.31071 -3.16256
head 18.1542 0.927034 -0.278963
rclavicle -5.37713e-014 5.40694e-014
rhumerus -25.834 3.29553 -72.1618
rradius 38.8068
rwrist 18.1874
rhand 5.36849 -48.8382
rfingers 7.12502
rthumb 30.7214 -436.292
lclavicle -5.37713e-014 5.40694e-014
lhumerus -53.5834 25.929 28.0258
lradius 40.5821
lwrist -2.77072
lhand -9.77833 -28.9531
lfingers 7.12502
lthumb 16.1971 0.390274
rfemur 24.3522 3.93406 40.5572
rtibia -2.22639e-014
rfoot -1.89243 -2.48104
rtoes 4.2874
lfemur -34.6077 -33.0397 -7.12308
ltibia 30.6962
lfoot -19.0984 17.854
ltoes -34.1048
